<?xml version="1.0" standalone="no"?>
<!DOCTYPE svg PUBLIC "-//W3C//DTD SVG 20010904//EN"
 "http://www.w3.org/TR/2001/REC-SVG-20010904/DTD/svg10.dtd">
<svg version="1.0" xmlns="http://www.w3.org/2000/svg"
 width="500.000000pt" height="500.000000pt" viewBox="0 0 500.000000 500.000000"
 preserveAspectRatio="xMidYMid meet">

<g transform="translate(0.000000,500.000000) scale(0.100000,-0.100000)"
fill="#ffffff" stroke="none">
<path d="M0 2500 l0 -2500 2500 0 2500 0 0 2500 0 2500 -2500 0 -2500 0 0
-2500z m1565 481 c141 -64 181 -255 78 -363 l-27 -28 27 0 27 0 0 -200 0 -200
-295 0 -294 0 -7 -35 c-7 -37 -8 -37 -98 -55 -33 -7 -71 -21 -85 -31 -14 -10
-49 -21 -77 -25 -50 -6 -51 -5 -58 21 -5 18 -3 31 5 36 18 11 117 21 130 13 6
-3 44 -1 84 6 69 12 73 14 77 41 4 27 2 29 -29 29 l-33 0 0 120 c0 113 -1 120
-20 120 -11 0 -20 -4 -20 -10 0 -5 -6 -10 -13 -10 -11 0 -57 78 -57 97 0 6 47
-1 88 -13 37 -11 26 19 -15 41 -59 32 -96 86 -101 149 -2 29 1 70 7 89 21 63
113 127 181 127 40 0 96 -25 134 -60 23 -21 46 -36 52 -32 6 4 16 23 24 42 49
125 196 186 315 131z m1752 -300 c44 -20 67 -48 78 -93 7 -27 6 -28 -36 -28
-38 0 -46 4 -61 30 -16 28 -21 30 -76 30 -59 0 -82 -11 -82 -40 0 -21 32 -36
111 -50 140 -26 192 -91 139 -177 -15 -25 -32 -36 -76 -49 -127 -37 -247 11
-270 109 -6 26 -5 27 40 27 40 0 48 -3 56 -24 12 -33 39 -46 93 -46 51 0 94
27 84 53 -3 9 -23 20 -44 26 -21 5 -67 17 -103 26 -83 21 -120 54 -120 106 0
46 38 95 83 108 55 16 139 12 184 -8z m-1027 -68 c17 -43 42 -100 53 -126 l22
-48 50 126 50 125 58 0 57 0 0 -195 0 -195 -45 0 -45 0 0 123 -1 122 -51 -123
c-48 -115 -53 -123 -77 -120 -23 3 -32 17 -78 128 l-52 125 -1 -127 0 -128
-45 0 -45 0 0 195 0 195 59 0 59 0 32 -77z m450 -48 c0 -72 5 -135 11 -149 16
-35 69 -52 106 -34 44 21 53 51 53 186 l0 122 46 0 46 0 -4 -149 c-3 -133 -5
-153 -24 -178 -35 -47 -82 -68 -149 -68 -67 0 -114 21 -149 68 -19 25 -21 44
-24 178 l-3 149 45 0 46 0 0 -125z m1050 85 l0 -40 -65 0 -65 0 0 -155 0 -155
-45 0 -45 0 0 155 0 155 -65 0 -65 0 0 40 0 40 175 0 175 0 0 -40z m-1900
-195 c0 -85 -3 -155 -6 -155 -4 0 -29 14 -56 30 -37 23 -60 30 -98 30 l-50 0
0 90 0 90 43 0 c30 0 57 9 97 34 30 19 58 35 63 35 4 1 7 -69 7 -154z m543
-365 c3 8 11 32 17 53 14 46 24 41 40 -20 l12 -48 17 47 c19 54 36 77 25 33
-13 -56 -31 -99 -40 -102 -5 -2 -16 18 -23 44 l-14 48 -15 -47 c-9 -27 -19
-48 -23 -48 -10 0 -39 88 -38 114 1 12 9 -4 19 -34 10 -32 20 -49 23 -40z
m296 28 c21 -62 22 -87 1 -49 -14 27 -50 27 -57 1 -3 -11 -9 -20 -14 -20 -7 0
22 97 36 120 10 16 12 13 34 -52z m211 52 c0 -5 -7 -10 -15 -10 -12 0 -15 -13
-15 -55 0 -30 -4 -55 -10 -55 -5 0 -10 25 -10 55 0 42 -3 55 -15 55 -8 0 -15
5 -15 10 0 6 18 10 40 10 22 0 40 -4 40 -10z m191 0 c5 0 9 -4 9 -8 0 -5 -13
-7 -30 -4 -24 3 -31 0 -39 -21 -20 -51 19 -96 56 -65 14 11 16 11 11 -2 -7
-21 -52 -24 -72 -5 -34 35 -1 127 41 111 8 -3 19 -6 24 -6z m180 -50 c26 0 29
3 29 31 0 17 4 28 10 24 6 -3 10 -33 10 -66 0 -33 -4 -59 -10 -59 -5 0 -10 14
-10 30 0 27 -3 30 -29 30 -26 0 -30 -4 -34 -32 -2 -18 -4 -1 -4 37 0 39 2 55
4 38 4 -29 8 -33 34 -33z m191 -1 l-10 -44 -1 55 c-1 39 2 51 10 43 7 -7 8
-24 1 -54z m3 -59 c3 -5 1 -10 -4 -10 -6 0 -11 5 -11 10 0 6 2 10 4 10 3 0 8
-4 11 -10z"/>
<path d="M1384 2856 c-29 -29 -34 -41 -34 -80 0 -66 38 -107 106 -113 43 -5
54 -2 82 22 86 72 38 205 -74 205 -39 0 -51 -5 -80 -34z m84 -19 c2 -10 -3
-17 -12 -17 -10 0 -16 9 -16 21 0 24 23 21 28 -4z m60 -34 c-4 -22 -22 -20
-26 1 -2 10 3 16 13 16 10 0 15 -7 13 -17z m-102 -4 c10 -17 -13 -36 -27 -22
-12 12 -4 33 11 33 5 0 12 -5 16 -11z m94 -64 c0 -8 -7 -15 -15 -15 -8 0 -15
7 -15 15 0 8 7 15 15 15 8 0 15 -7 15 -15z m-70 -10 c0 -8 -7 -15 -15 -15 -8
0 -15 7 -15 15 0 8 7 15 15 15 8 0 15 -7 15 -15z"/>
<path d="M1010 2803 c-38 -14 -60 -47 -60 -89 0 -111 159 -128 186 -20 17 68
-59 133 -126 109z m32 -38 c0 -5 -5 -11 -11 -13 -6 -2 -11 4 -11 13 0 9 5 15
11 13 6 -2 11 -8 11 -13z m50 -30 c0 -5 -5 -11 -11 -13 -6 -2 -11 4 -11 13 0
9 5 15 11 13 6 -2 11 -8 11 -13z m-82 -10 c0 -8 -7 -15 -15 -15 -16 0 -20 12
-8 23 11 12 23 8 23 -8z m80 -46 c0 -5 -7 -9 -15 -9 -15 0 -20 12 -9 23 8 8
24 -1 24 -14z m-60 -4 c0 -8 -7 -15 -15 -15 -16 0 -20 12 -8 23 11 12 23 8 23
-8z"/>
<path d="M1215 2620 l-16 -30 56 0 56 0 -21 30 c-12 17 -30 30 -40 30 -11 0
-26 -13 -35 -30z"/>
<path d="M1585 2260 c-8 -14 3 -30 21 -30 8 0 14 9 14 20 0 21 -24 28 -35 10z"/>
<path d="M2687 2120 c-4 -15 0 -20 14 -20 21 0 22 1 13 24 -8 22 -21 20 -27
-4z"/>
</g>
</svg>
